<svg xmlns="http://www.w3.org/2000/svg" width="860" height="372" viewBox="0 0 860 372" font-family="system-ui">
<style>
  .bg   { fill: #ffffff; }
  .fg   { fill: #1b1f23; }
  .grid { stroke: #d8dee4; stroke-width: 1; }
  .axis { stroke: #57606a; stroke-width: 1.2; }
  .lbl  { fill: #57606a; font: 12px system-ui, -apple-system, Segoe UI, sans-serif; }
  .ttl  { fill: #1b1f23; font: 600 15px system-ui, -apple-system, Segoe UI, sans-serif; }
  .sub  { fill: #57606a; font: 11px system-ui, -apple-system, Segoe UI, sans-serif; }
  .tag  { fill: #1b1f23; font: 11px system-ui, -apple-system, Segoe UI, sans-serif; }
  .tagb { fill: #1b1f23; font: 600 11px system-ui, -apple-system, Segoe UI, sans-serif; }
  .gen  { stroke: #0969da; fill: #0969da; }
  .genl { stroke: #0969da; stroke-width: 2.2; fill: none; }
  .oldl { stroke: #8c959f; stroke-width: 2; fill: none; stroke-dasharray: 5 4; }
  .oldd { stroke: #8c959f; fill: none; stroke-width: 2; }
  @media (prefers-color-scheme: dark) {
    .bg   { fill: #0d1117; }
    .fg   { fill: #e6edf3; }
    .grid { stroke: #30363d; }
    .axis { stroke: #8b949e; }
    .lbl  { fill: #8b949e; }
    .ttl  { fill: #e6edf3; }
    .sub  { fill: #8b949e; }
    .tag  { fill: #e6edf3; }
    .tagb { fill: #e6edf3; }
    .gen  { stroke: #58a6ff; fill: #58a6ff; }
    .genl { stroke: #58a6ff; }
    .oldl { stroke: #6e7681; }
    .oldd { stroke: #6e7681; }
  }
</style>
<rect class="bg" width="860" height="372"/>
<text class="ttl" x="20" y="22">Canterbury — 2,810,784 bytes, eleven files</text>
<text class="sub" x="20" y="39">Every codec measured here on this machine, one concatenated stream in canonical file order. Size comparison; times at this scale are</text>
<text class="sub" x="20" y="54">startup-dominated.</text>
<text class="lbl" x="419.0" y="362" text-anchor="middle">bits per byte — lower is better</text>
<text class="lbl" x="14" y="196.0" text-anchor="middle" transform="rotate(-90 14 196.0)"></text>
<line class="grid" x1="128.0" y1="76" x2="128.0" y2="316"/>
<text class="lbl" x="128.0" y="334" text-anchor="middle">0</text>
<line class="grid" x1="250.0" y1="76" x2="250.0" y2="316"/>
<text class="lbl" x="250.0" y="334" text-anchor="middle">0.5</text>
<line class="grid" x1="371.9" y1="76" x2="371.9" y2="316"/>
<text class="lbl" x="371.9" y="334" text-anchor="middle">1</text>
<line class="grid" x1="493.9" y1="76" x2="493.9" y2="316"/>
<text class="lbl" x="493.9" y="334" text-anchor="middle">1.5</text>
<line class="grid" x1="615.9" y1="76" x2="615.9" y2="316"/>
<text class="lbl" x="615.9" y="334" text-anchor="middle">2</text>
<line class="axis" x1="128" y1="76" x2="128" y2="316"/>
<line class="axis" x1="128" y1="316" x2="710" y2="316"/>
<rect x="128.0" y="81.1" width="210.2" height="19.8" fill="#bf3989" opacity="0.7" rx="1.5"/>
<text class="tag" x="118.0" y="95.0" text-anchor="end">paq8px -8</text>
<text class="tagb" x="345.2" y="95.0" text-anchor="start" fill="#bf3989">0.862</text>
<rect x="128.0" y="111.1" width="247.0" height="19.8" fill="#0969da" opacity="1.0" rx="1.5"/>
<text class="tagb" x="118.0" y="125.0" text-anchor="end" fill="#0969da">nyx -9</text>
<text class="tagb" x="382.0" y="125.0" text-anchor="start" fill="#0969da">1.013</text>
<rect x="128.0" y="141.1" width="249.8" height="19.8" fill="#0969da" opacity="1.0" rx="1.5"/>
<text class="tagb" x="118.0" y="155.0" text-anchor="end" fill="#0969da">nyx -7</text>
<text class="tagb" x="384.8" y="155.0" text-anchor="start" fill="#0969da">1.024</text>
<rect x="128.0" y="171.1" width="251.9" height="19.8" fill="#d29922" opacity="0.7" rx="1.5"/>
<text class="tag" x="118.0" y="185.0" text-anchor="end">zpaq -m5</text>
<text class="tagb" x="386.9" y="185.0" text-anchor="start" fill="#d29922">1.033</text>
<rect x="128.0" y="201.1" width="269.9" height="19.8" fill="#8250df" opacity="0.7" rx="1.5"/>
<text class="tag" x="118.0" y="215.0" text-anchor="end">lpaq1 -6</text>
<text class="tagb" x="404.9" y="215.0" text-anchor="start" fill="#8250df">1.107</text>
<rect x="128.0" y="231.1" width="335.8" height="19.8" fill="#1a7f37" opacity="0.7" rx="1.5"/>
<text class="tag" x="118.0" y="245.0" text-anchor="end">xz -9e</text>
<text class="tagb" x="470.8" y="245.0" text-anchor="start" fill="#1a7f37">1.376</text>
<rect x="128.0" y="261.1" width="395.4" height="19.8" fill="#6e7781" opacity="0.7" rx="1.5"/>
<text class="tag" x="118.0" y="275.0" text-anchor="end">bzip2 -9</text>
<text class="tagb" x="530.4" y="275.0" text-anchor="start" fill="#6e7781">1.621</text>
<rect x="128.0" y="291.1" width="510.5" height="19.8" fill="#953800" opacity="0.7" rx="1.5"/>
<text class="tag" x="118.0" y="305.0" text-anchor="end">gzip -9</text>
<text class="tagb" x="645.5" y="305.0" text-anchor="start" fill="#953800">2.093</text>
<text class="sub" x="702.0" y="91.0" text-anchor="end">nyx in blue; bars are bits per byte</text>
</svg>
