<svg xmlns="http://www.w3.org/2000/svg" width="820" height="440" viewBox="0 0 820 440" font-family="system-ui">
<style>
  .bg   { fill: #ffffff; }
  .fg   { fill: #1b1f23; }
  .grid { stroke: #d8dee4; stroke-width: 1; }
  .axis { stroke: #57606a; stroke-width: 1.2; }
  .lbl  { fill: #57606a; font: 12px system-ui, -apple-system, Segoe UI, sans-serif; }
  .ttl  { fill: #1b1f23; font: 600 15px system-ui, -apple-system, Segoe UI, sans-serif; }
  .sub  { fill: #57606a; font: 11px system-ui, -apple-system, Segoe UI, sans-serif; }
  .tag  { fill: #1b1f23; font: 11px system-ui, -apple-system, Segoe UI, sans-serif; }
  .tagb { fill: #1b1f23; font: 600 11px system-ui, -apple-system, Segoe UI, sans-serif; }
  .gen  { stroke: #0969da; fill: #0969da; }
  .genl { stroke: #0969da; stroke-width: 2.2; fill: none; }
  .oldl { stroke: #8c959f; stroke-width: 2; fill: none; stroke-dasharray: 5 4; }
  .oldd { stroke: #8c959f; fill: none; stroke-width: 2; }
  @media (prefers-color-scheme: dark) {
    .bg   { fill: #0d1117; }
    .fg   { fill: #e6edf3; }
    .grid { stroke: #30363d; }
    .axis { stroke: #8b949e; }
    .lbl  { fill: #8b949e; }
    .ttl  { fill: #e6edf3; }
    .sub  { fill: #8b949e; }
    .tag  { fill: #e6edf3; }
    .tagb { fill: #e6edf3; }
    .gen  { stroke: #58a6ff; fill: #58a6ff; }
    .genl { stroke: #58a6ff; }
    .oldl { stroke: #6e7681; }
    .oldd { stroke: #6e7681; }
  }
</style>
<rect class="bg" width="820" height="440"/>
<text class="ttl" x="20" y="22">The exchange rate between adjacent presets</text>
<text class="sub" x="20" y="39">Silesia, 211,938,580 bytes, single thread, genv2.exe. All presets and all reference codecs measured in ONE interleaved session; -7 and zpaq</text>
<text class="sub" x="20" y="54">repeated as drift sentinels (-7 spans 6%).</text>
<text class="lbl" x="431.0" y="430" text-anchor="middle">step up the ladder</text>
<text class="lbl" x="14" y="221.0" text-anchor="middle" transform="rotate(-90 14 221.0)">extra time per 1% of size saved</text>
<line class="grid" x1="66" y1="366.0" x2="796" y2="366.0"/>
<text class="lbl" x="57" y="370.0" text-anchor="end">0x</text>
<line class="grid" x1="66" y1="303.6" x2="796" y2="303.6"/>
<text class="lbl" x="57" y="307.6" text-anchor="end">5x</text>
<line class="grid" x1="66" y1="241.2" x2="796" y2="241.2"/>
<text class="lbl" x="57" y="245.2" text-anchor="end">10x</text>
<line class="grid" x1="66" y1="116.4" x2="796" y2="116.4"/>
<text class="lbl" x="57" y="120.4" text-anchor="end">20x</text>
<line class="axis" x1="66" y1="76" x2="66" y2="366"/>
<line class="axis" x1="66" y1="366" x2="796" y2="366"/>
<rect x="91.0" y="239.8" width="54.2" height="126.2" fill="#d29922" opacity="1.0" rx="1.5"/>
<text class="tagb" x="118.1" y="233.8" text-anchor="middle">10.1x</text>
<text class="lbl" x="118.1" y="383.0" text-anchor="middle">-f1→-1</text>
<text class="sub" x="118.1" y="397.0" text-anchor="middle">-1.41% size</text>
<rect x="195.3" y="301.3" width="54.2" height="64.7" fill="#1a7f37" opacity="1.0" rx="1.5"/>
<text class="tagb" x="222.4" y="295.3" text-anchor="middle">5.2x</text>
<text class="lbl" x="222.4" y="383.0" text-anchor="middle">-1→-f2</text>
<text class="sub" x="222.4" y="397.0" text-anchor="middle">-3.97% size</text>
<rect x="299.6" y="249.7" width="54.2" height="116.3" fill="#d29922" opacity="1.0" rx="1.5"/>
<text class="tagb" x="326.7" y="243.7" text-anchor="middle">9.3x</text>
<text class="lbl" x="326.7" y="383.0" text-anchor="middle">-f2→-2</text>
<text class="sub" x="326.7" y="397.0" text-anchor="middle">-1.42% size</text>
<rect x="403.9" y="200.8" width="54.2" height="165.2" fill="#d29922" opacity="1.0" rx="1.5"/>
<text class="tagb" x="431.0" y="194.8" text-anchor="middle">13.2x</text>
<text class="lbl" x="431.0" y="383.0" text-anchor="middle">-2→-3</text>
<text class="sub" x="431.0" y="397.0" text-anchor="middle">-2.27% size</text>
<rect x="508.2" y="214.1" width="54.2" height="151.9" fill="#d29922" opacity="1.0" rx="1.5"/>
<text class="tagb" x="535.3" y="208.1" text-anchor="middle">12.2x</text>
<text class="lbl" x="535.3" y="383.0" text-anchor="middle">-3→-5</text>
<text class="sub" x="535.3" y="397.0" text-anchor="middle">-3.52% size</text>
<rect x="612.5" y="258.5" width="54.2" height="107.5" fill="#d29922" opacity="1.0" rx="1.5"/>
<text class="tagb" x="639.6" y="252.5" text-anchor="middle">8.6x</text>
<text class="lbl" x="639.6" y="383.0" text-anchor="middle">-5→-7</text>
<text class="sub" x="639.6" y="397.0" text-anchor="middle">-4.31% size</text>
<rect x="716.7" y="124.3" width="54.2" height="241.7" fill="#d29922" opacity="1.0" rx="1.5"/>
<text class="tagb" x="743.9" y="118.3" text-anchor="middle">19.4x</text>
<text class="lbl" x="743.9" y="383.0" text-anchor="middle">-7→-9</text>
<text class="sub" x="743.9" y="397.0" text-anchor="middle">-2.57% size</text>
<text class="sub" x="74.0" y="91.0" text-anchor="start">lower is a better deal: % more time spent per % of size saved</text>
</svg>
