<svg xmlns="http://www.w3.org/2000/svg" width="820" height="440" viewBox="0 0 820 440" font-family="system-ui">
<style>
  .bg   { fill: #ffffff; }
  .fg   { fill: #1b1f23; }
  .grid { stroke: #d8dee4; stroke-width: 1; }
  .axis { stroke: #57606a; stroke-width: 1.2; }
  .lbl  { fill: #57606a; font: 12px system-ui, -apple-system, Segoe UI, sans-serif; }
  .ttl  { fill: #1b1f23; font: 600 15px system-ui, -apple-system, Segoe UI, sans-serif; }
  .sub  { fill: #57606a; font: 11px system-ui, -apple-system, Segoe UI, sans-serif; }
  .tag  { fill: #1b1f23; font: 11px system-ui, -apple-system, Segoe UI, sans-serif; }
  .tagb { fill: #1b1f23; font: 600 11px system-ui, -apple-system, Segoe UI, sans-serif; }
  .gen  { stroke: #0969da; fill: #0969da; }
  .genl { stroke: #0969da; stroke-width: 2.2; fill: none; }
  .oldl { stroke: #8c959f; stroke-width: 2; fill: none; stroke-dasharray: 5 4; }
  .oldd { stroke: #8c959f; fill: none; stroke-width: 2; }
  @media (prefers-color-scheme: dark) {
    .bg   { fill: #0d1117; }
    .fg   { fill: #e6edf3; }
    .grid { stroke: #30363d; }
    .axis { stroke: #8b949e; }
    .lbl  { fill: #8b949e; }
    .ttl  { fill: #e6edf3; }
    .sub  { fill: #8b949e; }
    .tag  { fill: #e6edf3; }
    .tagb { fill: #e6edf3; }
    .gen  { stroke: #58a6ff; fill: #58a6ff; }
    .genl { stroke: #58a6ff; }
    .oldl { stroke: #6e7681; }
    .oldd { stroke: #6e7681; }
  }
</style>
<rect class="bg" width="820" height="440"/>
<text class="ttl" x="20" y="22">The exchange rate between adjacent presets</text>
<text class="sub" x="20" y="39">Silesia, 211,938,580 bytes, single thread, genv2.exe. All presets and all reference codecs measured in ONE interleaved session; -7 and zpaq</text>
<text class="sub" x="20" y="54">repeated as drift sentinels (-7 spans 6%).</text>
<text class="lbl" x="431.0" y="430" text-anchor="middle">step up the ladder</text>
<text class="lbl" x="14" y="221.0" text-anchor="middle" transform="rotate(-90 14 221.0)">extra time per 1% of size saved</text>
<line class="grid" x1="66" y1="366.0" x2="796" y2="366.0"/>
<text class="lbl" x="57" y="370.0" text-anchor="end">0x</text>
<line class="grid" x1="66" y1="273.3" x2="796" y2="273.3"/>
<text class="lbl" x="57" y="277.3" text-anchor="end">5x</text>
<line class="grid" x1="66" y1="180.6" x2="796" y2="180.6"/>
<text class="lbl" x="57" y="184.6" text-anchor="end">10x</text>
<line class="axis" x1="66" y1="76" x2="66" y2="366"/>
<line class="axis" x1="66" y1="366" x2="796" y2="366"/>
<rect x="91.0" y="204.3" width="54.2" height="161.7" fill="#d29922" opacity="1.0" rx="1.5"/>
<text class="tagb" x="118.1" y="198.3" text-anchor="middle">8.7x</text>
<text class="lbl" x="118.1" y="383.0" text-anchor="middle">-f1→-1</text>
<text class="sub" x="118.1" y="397.0" text-anchor="middle">-2.42% size</text>
<rect x="195.3" y="316.5" width="54.2" height="49.5" fill="#1a7f37" opacity="1.0" rx="1.5"/>
<text class="tagb" x="222.4" y="310.5" text-anchor="middle">2.7x</text>
<text class="lbl" x="222.4" y="383.0" text-anchor="middle">-1→-f2</text>
<text class="sub" x="222.4" y="397.0" text-anchor="middle">-4.24% size</text>
<rect x="299.6" y="157.9" width="54.2" height="208.1" fill="#d29922" opacity="1.0" rx="1.5"/>
<text class="tagb" x="326.7" y="151.9" text-anchor="middle">11.2x</text>
<text class="lbl" x="326.7" y="383.0" text-anchor="middle">-f2→-2</text>
<text class="sub" x="326.7" y="397.0" text-anchor="middle">-1.86% size</text>
<rect x="403.9" y="142.1" width="54.2" height="223.9" fill="#d29922" opacity="1.0" rx="1.5"/>
<text class="tagb" x="431.0" y="136.1" text-anchor="middle">12.1x</text>
<text class="lbl" x="431.0" y="383.0" text-anchor="middle">-2→-3</text>
<text class="sub" x="431.0" y="397.0" text-anchor="middle">-2.70% size</text>
<rect x="508.2" y="155.4" width="54.2" height="210.6" fill="#d29922" opacity="1.0" rx="1.5"/>
<text class="tagb" x="535.3" y="149.4" text-anchor="middle">11.4x</text>
<text class="lbl" x="535.3" y="383.0" text-anchor="middle">-3→-5</text>
<text class="sub" x="535.3" y="397.0" text-anchor="middle">-3.13% size</text>
<rect x="612.5" y="231.5" width="54.2" height="134.5" fill="#1a7f37" opacity="1.0" rx="1.5"/>
<text class="tagb" x="639.6" y="225.5" text-anchor="middle">7.3x</text>
<text class="lbl" x="639.6" y="383.0" text-anchor="middle">-5→-7</text>
<text class="sub" x="639.6" y="397.0" text-anchor="middle">-4.65% size</text>
<rect x="716.7" y="124.3" width="54.2" height="241.7" fill="#d29922" opacity="1.0" rx="1.5"/>
<text class="tagb" x="743.9" y="118.3" text-anchor="middle">13.0x</text>
<text class="lbl" x="743.9" y="383.0" text-anchor="middle">-7→-9</text>
<text class="sub" x="743.9" y="397.0" text-anchor="middle">-2.50% size</text>
<text class="sub" x="74.0" y="91.0" text-anchor="start">lower is a better deal: % more time spent per % of size saved</text>
</svg>
